<svg xmlns="http://www.w3.org/2000/svg" viewBox="0 0 1200 680" role="img" aria-labelledby="title desc">
  <title id="title">Fuji City food illustration</title>
  <desc id="desc">Shirasu don, Tsuke Napolitan, tea, and spring water representing Fuji City's food culture.</desc>
  <rect width="1200" height="680" fill="#f5f1ea" />
  <rect x="64" y="64" width="1072" height="552" rx="36" fill="#fffdf9" stroke="#ddd2c5" stroke-width="10" />
  <g transform="translate(218 164)">
    <ellipse cx="190" cy="262" rx="200" ry="108" fill="#355a74" />
    <ellipse cx="190" cy="248" rx="172" ry="84" fill="#f8fbfd" />
    <path d="M 58 235 C 110 200 160 198 190 228 C 220 198 270 200 324 235 C 300 276 252 300 190 300 C 128 300 82 276 58 235 Z" fill="#eef4f8" />
    <g stroke="#c5d3dc" stroke-width="8" stroke-linecap="round">
      <path d="M 92 214 L 136 246" />
      <path d="M 132 206 L 178 244" />
      <path d="M 182 202 L 212 240" />
      <path d="M 234 206 L 270 244" />
      <path d="M 280 214 L 314 244" />
    </g>
  </g>
  <g transform="translate(582 150)">
    <ellipse cx="170" cy="278" rx="196" ry="106" fill="#8b4332" />
    <ellipse cx="170" cy="262" rx="170" ry="82" fill="#f0d8b5" />
    <path d="M 58 250 C 72 212 110 192 146 200 C 184 208 200 246 240 252 C 274 257 302 236 326 224" fill="none" stroke="#df7b34" stroke-width="20" stroke-linecap="round" />
    <path d="M 62 276 C 102 236 142 226 182 236 C 222 246 262 278 312 250" fill="none" stroke="#c84d29" stroke-width="18" stroke-linecap="round" />
    <rect x="266" y="124" width="16" height="134" fill="#c49f6e" />
    <rect x="300" y="118" width="16" height="138" fill="#c49f6e" />
  </g>
  <g transform="translate(948 122)">
    <rect x="0" y="0" width="164" height="272" rx="18" fill="#d5ead7" stroke="#6fa27b" stroke-width="10" />
    <rect x="62" y="-30" width="38" height="60" rx="14" fill="#f6faf7" stroke="#6fa27b" stroke-width="8" />
    <rect x="18" y="36" width="128" height="188" rx="12" fill="#9dcd97" />
    <path d="M 32 194 C 52 146 78 108 96 78 C 114 106 132 146 148 194 Z" fill="#4d8f4b" />
    <path d="M 32 194 C 62 168 94 164 148 194" fill="none" stroke="#71b666" stroke-width="10" />
  </g>
  <g transform="translate(946 444)">
    <path d="M 0 52 C 48 16 96 16 144 52 V 122 H 0 Z" fill="#6bb6e7" opacity="0.8" />
    <path d="M 28 20 C 54 -12 92 -12 118 20 V 132 H 28 Z" fill="#9ed7f6" />
    <rect x="56" y="124" width="34" height="56" rx="14" fill="#e5f4fb" />
  </g>
</svg>
