<svg xmlns="http://www.w3.org/2000/svg" viewBox="0 0 1200 680" role="img" aria-labelledby="title desc">
  <title id="title">Taipei hero illustration</title>
  <desc id="desc">Taipei skyline with Taipei 101, mountains, temple roof, lanterns, and MRT lines.</desc>
  <defs>
    <linearGradient id="taipeiSky" x1="0" y1="0" x2="0" y2="1">
      <stop offset="0%" stop-color="#26476f" />
      <stop offset="52%" stop-color="#6b91a8" />
      <stop offset="100%" stop-color="#f0b47d" />
    </linearGradient>
    <linearGradient id="mountains" x1="0" y1="0" x2="1" y2="1">
      <stop offset="0%" stop-color="#234d44" />
      <stop offset="100%" stop-color="#5f7f52" />
    </linearGradient>
    <linearGradient id="marketGlow" x1="0" y1="0" x2="0" y2="1">
      <stop offset="0%" stop-color="#ffd579" />
      <stop offset="100%" stop-color="#ea5e3d" />
    </linearGradient>
  </defs>
  <rect width="1200" height="680" fill="url(#taipeiSky)" />
  <circle cx="954" cy="116" r="50" fill="#ffd58a" opacity="0.85" />
  <path d="M 0 410 C 120 330 220 370 330 318 C 450 260 558 344 678 294 C 836 228 968 316 1200 238 V 680 H 0 Z" fill="url(#mountains)" opacity="0.86" />
  <path d="M 0 468 C 170 418 280 456 418 420 C 574 378 708 460 848 410 C 998 356 1084 396 1200 364 V 680 H 0 Z" fill="#1e3a3f" opacity="0.62" />
  <g fill="#1d2635">
    <rect x="72" y="336" width="70" height="192" />
    <rect x="154" y="306" width="54" height="222" />
    <rect x="222" y="352" width="76" height="176" />
    <rect x="318" y="294" width="86" height="234" />
    <rect x="430" y="330" width="64" height="198" />
    <rect x="712" y="318" width="68" height="210" />
    <rect x="794" y="278" width="82" height="250" />
    <rect x="894" y="338" width="62" height="190" />
    <rect x="976" y="300" width="90" height="228" />
    <rect x="1080" y="364" width="60" height="164" />
  </g>
  <g transform="translate(546 116)">
    <path d="M 42 0 L 70 72 L 14 72 Z" fill="#d8f1ed" />
    <rect x="30" y="72" width="24" height="330" fill="#d8f1ed" />
    <rect x="6" y="112" width="72" height="42" fill="#c4e3df" />
    <rect x="-2" y="186" width="88" height="38" fill="#b5d9d6" />
    <rect x="-12" y="264" width="108" height="42" fill="#a4cfcf" />
    <rect x="-24" y="344" width="132" height="74" fill="#8fc0c3" />
    <g fill="#26476f" opacity="0.38">
      <rect x="26" y="94" width="8" height="18" />
      <rect x="50" y="94" width="8" height="18" />
      <rect x="18" y="164" width="8" height="18" />
      <rect x="40" y="164" width="8" height="18" />
      <rect x="62" y="164" width="8" height="18" />
      <rect x="8" y="236" width="8" height="18" />
      <rect x="34" y="236" width="8" height="18" />
      <rect x="60" y="236" width="8" height="18" />
      <rect x="86" y="236" width="8" height="18" />
    </g>
  </g>
  <g transform="translate(142 444)">
    <rect x="26" y="62" width="28" height="112" fill="#8b4934" />
    <rect x="210" y="62" width="28" height="112" fill="#8b4934" />
    <path d="M 0 70 Q 132 -28 264 70 L 238 88 Q 132 26 26 88 Z" fill="#c83b31" />
    <path d="M 28 86 Q 132 36 236 86 L 212 104 Q 132 68 52 104 Z" fill="#f0b64a" />
    <rect x="58" y="104" width="148" height="72" fill="#293245" />
  </g>
  <g transform="translate(896 430)">
    <rect x="0" y="34" width="186" height="116" rx="18" fill="#2f3345" />
    <path d="M -12 42 L 198 42 L 170 0 L 16 0 Z" fill="#1f2737" />
    <g fill="url(#marketGlow)">
      <ellipse cx="44" cy="68" rx="22" ry="26" />
      <ellipse cx="94" cy="68" rx="22" ry="26" />
      <ellipse cx="144" cy="68" rx="22" ry="26" />
    </g>
    <g stroke="#7e342a" stroke-width="5">
      <path d="M 22 68 H 166" />
      <path d="M 44 42 V 94" />
      <path d="M 94 42 V 94" />
      <path d="M 144 42 V 94" />
    </g>
  </g>
  <g fill="none" stroke-linecap="round" stroke-width="12" opacity="0.86">
    <path d="M 64 606 C 240 548 392 566 552 620 C 730 680 916 626 1136 562" stroke="#4ca66a" />
    <path d="M 64 638 C 248 590 414 606 570 650 C 748 700 918 654 1136 608" stroke="#e7c64b" />
    <path d="M 64 574 C 256 520 424 530 560 582 C 730 648 902 588 1136 526" stroke="#d5524a" />
  </g>
</svg>
